<?xml version="1.0" standalone="no"?><!DOCTYPE svg PUBLIC "-//W3C//DTD SVG 1.1//EN" "http://www.w3.org/Graphics/SVG/1.1/DTD/svg11.dtd"><svg t="1589208664648" class="icon" viewBox="0 0 1024 1024" version="1.1" xmlns="http://www.w3.org/2000/svg" p-id="1844" xmlns:xlink="http://www.w3.org/1999/xlink" width="32" height="32"><defs><style type="text/css"></style></defs><path d="M851.39 470.015c-2.925 0-5.783 0.135-8.685 0.383-10.147-268.582-223.087-305.325-300.42-309.78l10.26-29.272c2.543-7.245 0.81-15.278-4.455-20.858s-13.208-7.717-20.565-5.602c-192.893 55.755-275.265 151.672-310.433 222.322-35.64 71.64-31.5 132.12-30.262 143.797-4.77-0.63-9.608-0.99-14.423-0.99-60.885-0.023-110.408 49.5-110.408 110.385 0 60.862 49.523 110.385 110.408 110.385 5.985 0 11.992-0.54 17.91-1.53 45.248 133.92 172.125 230.648 321.12 230.648 149.063 0 275.962-96.795 321.21-230.783 6.21 1.080 12.442 1.665 18.743 1.665 60.863 0 110.363-49.5 110.363-110.385 0-60.885-49.5-110.385-110.363-110.385zM500.367 156.478l-6.143 17.528c-2.272 6.48-1.125 13.657 2.993 19.125 4.14 5.468 10.688 8.438 17.617 8.077 0.315-0.022 3.465-0.202 8.82-0.202 55.012 0 217.17 14.895 265.050 183.488-4.095-4.747-8.483-9.473-13.163-14.22-30.78-31.905-67.365-55.282-108.922-69.435l-8.235-2.813-65.227 33.615-76.882-63.9-86.31 65.543-74.25-34.875-9.428 5.76c-2.767 1.688-60.233 37.215-111.15 91.575 18.585-69.862 78.48-174.735 265.23-239.265zM172.407 649.79c-38.295 0-69.413-31.14-69.413-69.39s31.118-69.413 69.413-69.413c2.52 0 5.017 0.158 7.493 0.427-4.815 22.883-7.313 46.215-7.313 69.593 0 23.422 2.385 46.305 6.93 68.377-2.363 0.27-4.748 0.405-7.11 0.405zM511.437 878.93c-164.25 0-297.9-133.627-297.9-297.9 0-43.087 9.090-84.51 26.91-123.412 40.050-53.595 98.010-95.265 120.173-110.16l65.205 30.622c2.25 1.058 4.657 1.665 7.065 1.868l2.070 0.968 1.282-0.99c3.802-0.315 7.538-1.688 10.688-4.095l70.245-53.37 62.302 51.75c1.215 0.99 2.498 1.845 3.848 2.52l4.477 3.735 3.127-1.598c3.712 0.338 7.582-0.405 11.003-2.205l61.627-31.725c37.305 14.288 65.677 36.225 86.715 58.613 38.632 51.862 59.040 113.152 59.040 177.458 0.023 164.272-133.605 297.923-297.877 297.923zM851.39 649.79c-2.7 0-5.333-0.18-7.988-0.495 4.545-22.028 6.952-44.865 6.952-68.265 0-23.58-2.43-46.867-7.178-69.502 2.745-0.338 5.468-0.518 8.235-0.518 38.25 0 69.413 31.14 69.413 69.39s-31.185 69.39-69.435 69.39z" p-id="1845"></path></svg>